<svg width="100" height="100" viewBox="0 0 100 100" fill="none" xmlns="http://www.w3.org/2000/svg">
<path d="M12.9193 62.4212C10.0289 60.4828 9.26752 56.5836 11.2187 53.7122L39.7992 11.6508C41.7503 8.77936 45.6751 8.02295 48.5655 9.96134C51.4559 11.8997 52.2173 15.7989 50.2661 18.6703L21.6856 60.7317C19.7345 63.6031 15.8097 64.3596 12.9193 62.4212Z" fill="white"/>
<path d="M22.9915 89.9256C20.1011 87.9872 19.3397 84.0881 21.2909 81.2166L69.1632 10.7639C71.1143 7.89241 75.0392 7.136 77.9295 9.07439C80.8199 11.0128 81.5813 14.9119 79.6302 17.7834L31.7578 88.2361C29.8067 91.1076 25.8819 91.864 22.9915 89.9256Z" fill="white"/>
<path d="M52.435 88.9218C49.5446 86.9834 48.7832 83.0843 50.7343 80.2128L79.3148 38.1515C81.266 35.28 85.1908 34.5236 88.0812 36.462C90.9715 38.4004 91.7329 42.2995 89.7818 45.171L61.2013 87.2323C59.2501 90.1038 55.3253 90.8602 52.435 88.9218Z" fill="white"/>
</svg>
