<svg width="589" height="107" viewBox="0 0 589 107" fill="none" xmlns="http://www.w3.org/2000/svg">
<path d="M123.65 68C123.183 68 122.95 67.7667 122.95 67.3V35.95C122.95 35.4833 123.183 35.25 123.65 35.25H144.45C144.883 35.25 145.1 35.4833 145.1 35.95V41.7C145.1 42.1667 144.883 42.4 144.45 42.4H131.2V48.6H142.55C142.983 48.6 143.2 48.8333 143.2 49.3V54.9C143.2 55.3333 142.983 55.55 142.55 55.55H131.2V67.3C131.2 67.7667 130.983 68 130.55 68H123.65ZM159.436 68.6C155.703 68.6 152.769 67.7167 150.636 65.95C148.536 64.1833 147.486 61.5333 147.486 58V53.15C147.486 49.6167 148.536 46.9667 150.636 45.2C152.736 43.4333 155.669 42.55 159.436 42.55C163.203 42.55 166.136 43.4333 168.236 45.2C170.336 46.9667 171.386 49.6167 171.386 53.15V58C171.386 61.5333 170.336 64.1833 168.236 65.95C166.136 67.7167 163.203 68.6 159.436 68.6ZM159.436 61.85C160.803 61.85 161.803 61.5 162.436 60.8C163.069 60.1 163.386 58.9167 163.386 57.25V53.85C163.386 52.2167 163.069 51.05 162.436 50.35C161.803 49.65 160.803 49.3 159.436 49.3C158.069 49.3 157.069 49.65 156.436 50.35C155.803 51.05 155.486 52.2167 155.486 53.85V57.25C155.486 58.9167 155.803 60.1 156.436 60.8C157.069 61.5 158.069 61.85 159.436 61.85ZM176.275 68C175.808 68 175.575 67.7667 175.575 67.3V49.55C175.575 48.4833 175.542 47.5 175.475 46.6C175.442 45.6667 175.392 44.75 175.325 43.85C175.258 43.3833 175.475 43.15 175.975 43.15H181.675C181.875 43.15 182.042 43.1833 182.175 43.25C182.308 43.3167 182.392 43.4667 182.425 43.7C182.558 44.2667 182.658 44.9 182.725 45.6C182.792 46.2667 182.842 46.9333 182.875 47.6L183.575 50.8V67.3C183.575 67.7667 183.342 68 182.875 68H176.275ZM183.075 53.95L182.525 47.5C183.192 46.5667 183.942 45.7333 184.775 45C185.642 44.2333 186.508 43.6333 187.375 43.2C188.242 42.7667 189.042 42.55 189.775 42.55C190.308 42.55 190.742 42.6 191.075 42.7C191.308 42.7667 191.458 42.8667 191.525 43C191.592 43.1333 191.625 43.3167 191.625 43.55C191.625 44.45 191.608 45.4833 191.575 46.65C191.575 47.7833 191.525 48.85 191.425 49.85C191.392 50.1167 191.308 50.3 191.175 50.4C191.075 50.5 190.892 50.5333 190.625 50.5C190.458 50.4667 190.225 50.4333 189.925 50.4C189.625 50.3667 189.342 50.35 189.075 50.35C188.442 50.35 187.775 50.4833 187.075 50.75C186.375 51.0167 185.675 51.4167 184.975 51.95C184.308 52.45 183.675 53.1167 183.075 53.95ZM205.771 68.6C201.671 68.6 198.671 67.75 196.771 66.05C194.871 64.35 193.921 61.8333 193.921 58.5V53.2C193.921 49.7 194.855 47.05 196.721 45.25C198.621 43.45 201.588 42.55 205.621 42.55C209.521 42.55 212.438 43.4167 214.371 45.15C216.338 46.85 217.321 49.4 217.321 52.8V56.7C217.321 57.1667 217.088 57.4 216.621 57.4H201.771V58.85C201.771 60.1167 202.071 61.0833 202.671 61.75C203.271 62.3833 204.255 62.7 205.621 62.7C206.688 62.7 207.521 62.5333 208.121 62.2C208.755 61.8667 209.071 61.35 209.071 60.65C209.071 60.25 209.305 60.05 209.771 60.05H216.121C216.555 60.05 216.788 60.2667 216.821 60.7C216.855 63.4 215.971 65.4 214.171 66.7C212.371 67.9667 209.571 68.6 205.771 68.6ZM201.771 53H209.521V52.8C209.521 51.2667 209.221 50.1667 208.621 49.5C208.021 48.8333 207.055 48.5 205.721 48.5C204.321 48.5 203.305 48.8333 202.671 49.5C202.071 50.1667 201.771 51.2667 201.771 52.8V53ZM232.919 68.6C230.685 68.6 228.902 68.3 227.569 67.7C226.235 67.0667 225.269 66.05 224.669 64.65C224.102 63.25 223.819 61.4167 223.819 59.15V49.75H220.319C219.852 49.75 219.619 49.5167 219.619 49.05V43.8C219.619 43.3667 219.852 43.15 220.319 43.15H224.069L224.919 37.15C224.985 36.7167 225.235 36.5 225.669 36.5H231.119C231.585 36.5 231.819 36.7333 231.819 37.2V43.15H237.869C238.335 43.15 238.569 43.3667 238.569 43.8V49.05C238.569 49.5167 238.335 49.75 237.869 49.75H231.819V58.55C231.819 59.6167 232.019 60.4333 232.419 61C232.852 61.5333 233.535 61.8 234.469 61.8C235.002 61.8 235.535 61.75 236.069 61.65C236.635 61.55 237.219 61.4 237.819 61.2C238.085 61.1 238.285 61.1 238.419 61.2C238.552 61.3 238.619 61.4833 238.619 61.75V67C238.619 67.3667 238.435 67.6333 238.069 67.8C237.369 68.0667 236.552 68.2667 235.619 68.4C234.719 68.5333 233.819 68.6 232.919 68.6ZM257.93 68C257.463 68 257.23 67.7667 257.23 67.3V52.55C257.23 51.4833 257.013 50.7 256.58 50.2C256.18 49.6667 255.513 49.4 254.58 49.4C253.613 49.4 252.647 49.7 251.68 50.3C250.747 50.8667 249.897 51.5833 249.13 52.45L248.53 47.45C249.33 46.65 250.18 45.8833 251.08 45.15C252.013 44.3833 253.047 43.7667 254.18 43.3C255.347 42.8 256.647 42.55 258.08 42.55C260.48 42.55 262.263 43.2 263.43 44.5C264.63 45.8 265.23 47.8667 265.23 50.7V67.3C265.23 67.7667 264.997 68 264.53 68H257.93ZM242.73 68C242.263 68 242.03 67.7667 242.03 67.3V34.55C242.03 34.0833 242.263 33.85 242.73 33.85H249.33C249.797 33.85 250.03 34.0833 250.03 34.55V67.3C250.03 67.7667 249.797 68 249.33 68H242.73ZM281.506 68.6C277.773 68.6 274.84 67.7167 272.706 65.95C270.606 64.1833 269.556 61.5333 269.556 58V53.15C269.556 49.6167 270.606 46.9667 272.706 45.2C274.806 43.4333 277.74 42.55 281.506 42.55C285.273 42.55 288.206 43.4333 290.306 45.2C292.406 46.9667 293.456 49.6167 293.456 53.15V58C293.456 61.5333 292.406 64.1833 290.306 65.95C288.206 67.7167 285.273 68.6 281.506 68.6ZM281.506 61.85C282.873 61.85 283.873 61.5 284.506 60.8C285.14 60.1 285.456 58.9167 285.456 57.25V53.85C285.456 52.2167 285.14 51.05 284.506 50.35C283.873 49.65 282.873 49.3 281.506 49.3C280.14 49.3 279.14 49.65 278.506 50.35C277.873 51.05 277.556 52.2167 277.556 53.85V57.25C277.556 58.9167 277.873 60.1 278.506 60.8C279.14 61.5 280.14 61.85 281.506 61.85ZM304.643 68.6C302.376 68.6 300.66 67.95 299.493 66.65C298.326 65.3167 297.743 63.25 297.743 60.45V43.8C297.743 43.3667 297.976 43.15 298.443 43.15H305.043C305.51 43.15 305.743 43.3667 305.743 43.8V58.6C305.743 59.6333 305.926 60.4167 306.293 60.95C306.66 61.4833 307.226 61.75 307.993 61.75C308.926 61.75 309.86 61.4333 310.793 60.8C311.726 60.1667 312.61 59.4167 313.443 58.55L313.993 63.55C313.226 64.3167 312.376 65.1 311.443 65.9C310.543 66.6667 309.543 67.3167 308.443 67.85C307.343 68.35 306.076 68.6 304.643 68.6ZM314.343 68C314.11 68 313.943 67.9667 313.843 67.9C313.743 67.8 313.66 67.6333 313.593 67.4C313.46 66.8667 313.343 66.2667 313.243 65.6C313.176 64.9333 313.11 64.2667 313.043 63.6L312.393 60.5V43.8C312.393 43.3667 312.626 43.15 313.093 43.15H319.693C320.16 43.15 320.393 43.3667 320.393 43.8V61.55C320.393 62.6167 320.41 63.6167 320.443 64.55C320.51 65.4833 320.576 66.3833 320.643 67.25C320.71 67.75 320.493 68 319.993 68H314.343ZM335.482 77.85C331.249 77.85 328.182 77.3333 326.282 76.3C324.415 75.3 323.482 73.8167 323.482 71.85C323.482 70.6833 323.765 69.6 324.332 68.6C324.899 67.6333 325.865 66.8 327.232 66.1L333.232 67.7C332.599 67.9667 332.132 68.3167 331.832 68.75C331.565 69.1833 331.432 69.6333 331.432 70.1C331.432 70.8 331.749 71.2833 332.382 71.55C333.049 71.85 334.215 72.0167 335.882 72.05C337.849 72.0833 339.132 71.95 339.732 71.65C340.332 71.3833 340.632 70.8833 340.632 70.15C340.632 69.65 340.499 69.2667 340.232 69C339.965 68.7667 339.532 68.6333 338.932 68.6L330.032 67.95C328.499 67.85 327.299 67.3833 326.432 66.55C325.565 65.7167 325.132 64.5667 325.132 63.1C325.132 62.3333 325.232 61.6333 325.432 61C325.665 60.3333 326.032 59.7167 326.532 59.15C327.065 58.5833 327.765 58.0667 328.632 57.6L333.332 59.25C332.732 59.45 332.315 59.7 332.082 60C331.882 60.3 331.782 60.6 331.782 60.9C331.782 61.2 331.882 61.4333 332.082 61.6C332.315 61.7333 332.699 61.8167 333.232 61.85L340.982 62.35C343.715 62.55 345.632 63.2833 346.732 64.55C347.865 65.7833 348.432 67.5667 348.432 69.9C348.432 72.6667 347.415 74.6833 345.382 75.95C343.349 77.2167 340.049 77.85 335.482 77.85ZM336.082 59.95C332.549 59.95 329.932 59.25 328.232 57.85C326.532 56.4167 325.682 54.25 325.682 51.35C325.682 48.35 326.532 46.1333 328.232 44.7C329.932 43.2667 332.549 42.55 336.082 42.55C339.615 42.55 342.215 43.2667 343.882 44.7C345.582 46.1333 346.432 48.35 346.432 51.35C346.432 54.25 345.582 56.4167 343.882 57.85C342.215 59.25 339.615 59.95 336.082 59.95ZM336.082 54.25C337.149 54.25 337.882 54.0167 338.282 53.55C338.715 53.0833 338.932 52.3167 338.932 51.25C338.932 50.1833 338.715 49.4167 338.282 48.95C337.882 48.45 337.149 48.2 336.082 48.2C334.982 48.2 334.215 48.45 333.782 48.95C333.382 49.4167 333.182 50.1833 333.182 51.25C333.182 52.3167 333.382 53.0833 333.782 53.55C334.215 54.0167 334.982 54.25 336.082 54.25ZM343.332 45.3L338.132 43.45C338.132 42.3167 338.182 41.2167 338.282 40.15C338.382 39.0833 338.482 38.1667 338.582 37.4C338.682 37 338.882 36.8 339.182 36.8H344.282C344.849 36.8 345.049 37.05 344.882 37.55C344.482 38.75 344.149 40 343.882 41.3C343.615 42.6 343.432 43.9333 343.332 45.3ZM367.403 68C366.936 68 366.703 67.7667 366.703 67.3V52.55C366.703 51.4833 366.486 50.7 366.053 50.2C365.653 49.6667 364.986 49.4 364.053 49.4C363.086 49.4 362.119 49.7 361.153 50.3C360.219 50.8667 359.369 51.5833 358.603 52.45L358.003 47.45C358.803 46.65 359.653 45.8833 360.553 45.15C361.486 44.3833 362.519 43.7667 363.653 43.3C364.819 42.8 366.119 42.55 367.553 42.55C369.953 42.55 371.736 43.2 372.903 44.5C374.103 45.8 374.703 47.8667 374.703 50.7V67.3C374.703 67.7667 374.469 68 374.003 68H367.403ZM352.203 68C351.736 68 351.503 67.7667 351.503 67.3V34.55C351.503 34.0833 351.736 33.85 352.203 33.85H358.803C359.269 33.85 359.503 34.0833 359.503 34.55V67.3C359.503 67.7667 359.269 68 358.803 68H352.203ZM390.927 68.6C388.693 68.6 386.91 68.3 385.577 67.7C384.243 67.0667 383.277 66.05 382.677 64.65C382.11 63.25 381.827 61.4167 381.827 59.15V49.75H378.327C377.86 49.75 377.627 49.5167 377.627 49.05V43.8C377.627 43.3667 377.86 43.15 378.327 43.15H382.077L382.927 37.15C382.993 36.7167 383.243 36.5 383.677 36.5H389.127C389.593 36.5 389.827 36.7333 389.827 37.2V43.15H395.877C396.343 43.15 396.577 43.3667 396.577 43.8V49.05C396.577 49.5167 396.343 49.75 395.877 49.75H389.827V58.55C389.827 59.6167 390.027 60.4333 390.427 61C390.86 61.5333 391.543 61.8 392.477 61.8C393.01 61.8 393.543 61.75 394.077 61.65C394.643 61.55 395.227 61.4 395.827 61.2C396.093 61.1 396.293 61.1 396.427 61.2C396.56 61.3 396.627 61.4833 396.627 61.75V67C396.627 67.3667 396.443 67.6333 396.077 67.8C395.377 68.0667 394.56 68.2667 393.627 68.4C392.727 68.5333 391.827 68.6 390.927 68.6ZM410.455 68C409.988 68 409.755 67.7667 409.755 67.3V34.55C409.755 34.0833 409.988 33.85 410.455 33.85H417.055C417.521 33.85 417.755 34.0833 417.755 34.55V45.9C417.755 46.6333 417.738 47.4 417.705 48.2C417.705 48.9667 417.688 49.7333 417.655 50.5C417.655 51.2667 417.621 52.0333 417.555 52.8H417.705C418.205 51.9667 418.738 51.1333 419.305 50.3C419.871 49.4667 420.421 48.6833 420.955 47.95L424.305 43.55C424.505 43.2833 424.771 43.15 425.105 43.15H433.155C433.455 43.15 433.638 43.2333 433.705 43.4C433.805 43.5333 433.755 43.7167 433.555 43.95L425.305 53.95L434.205 67.15C434.371 67.3833 434.405 67.5833 434.305 67.75C434.238 67.9167 434.071 68 433.805 68H426.005C425.638 68 425.355 67.85 425.155 67.55L419.855 59.3L417.755 61.75V67.3C417.755 67.7667 417.521 68 417.055 68H410.455ZM447.997 40.2C450.731 40.2 453.147 40.7167 455.247 41.75C457.347 42.75 458.997 44.2833 460.197 46.35C461.397 48.3833 461.997 50.9833 461.997 54.15C461.997 57.3167 461.447 59.9667 460.347 62.1C459.281 64.2333 457.781 65.8333 455.847 66.9C453.914 67.9667 451.664 68.5 449.097 68.5C446.597 68.5 444.431 68.0167 442.597 67.05C440.764 66.0833 439.347 64.6833 438.347 62.85C437.347 60.9833 436.847 58.7333 436.847 56.1V52.5H454.447C454.381 50.4 453.747 48.75 452.547 47.55C451.381 46.35 449.747 45.75 447.647 45.75C445.914 45.75 444.314 45.9333 442.847 46.3C441.414 46.6333 439.931 47.1667 438.397 47.9V42.15C439.764 41.4833 441.181 41 442.647 40.7C444.114 40.3667 445.897 40.2 447.997 40.2ZM443.847 57.45C443.881 58.55 444.081 59.5333 444.447 60.4C444.814 61.2667 445.381 61.95 446.147 62.45C446.914 62.95 447.881 63.2 449.047 63.2C450.514 63.2 451.714 62.7333 452.647 61.8C453.614 60.8667 454.164 59.4167 454.297 57.45H443.847ZM482.588 68C482.122 68 481.888 67.7667 481.888 67.3V52.55C481.888 51.4833 481.672 50.7 481.238 50.2C480.838 49.6667 480.172 49.4 479.238 49.4C478.272 49.4 477.322 49.7 476.388 50.3C475.488 50.8667 474.605 51.5833 473.738 52.45L473.188 47.5C473.955 46.6667 474.805 45.8833 475.738 45.15C476.672 44.3833 477.705 43.7667 478.838 43.3C480.005 42.8 481.305 42.55 482.738 42.55C485.105 42.55 486.888 43.2 488.088 44.5C489.288 45.8 489.888 47.8667 489.888 50.7V67.3C489.888 67.7667 489.655 68 489.188 68H482.588ZM467.388 68C466.922 68 466.688 67.7667 466.688 67.3V49.6C466.688 48.5333 466.655 47.5167 466.588 46.55C466.555 45.5833 466.505 44.7 466.438 43.9C466.372 43.4 466.588 43.15 467.088 43.15H472.788C472.988 43.15 473.155 43.1833 473.288 43.25C473.422 43.3167 473.505 43.4667 473.538 43.7C473.605 44.0333 473.672 44.4333 473.738 44.9C473.805 45.3333 473.872 45.8 473.938 46.3C474.005 46.7667 474.038 47.2167 474.038 47.65L474.688 50.6V67.3C474.688 67.7667 474.455 68 473.988 68H467.388ZM499.314 29.5V43.2H494.314V29.5H499.314ZM513.149 68.6C509.449 68.6 506.782 67.9667 505.149 66.7C503.549 65.4 502.865 63.3333 503.099 60.5C503.165 60.0333 503.415 59.8 503.849 59.8H509.899C510.332 59.8 510.549 60.05 510.549 60.55C510.549 61.3833 510.765 62.0167 511.199 62.45C511.632 62.8833 512.282 63.1 513.149 63.1C514.115 63.1 514.832 62.95 515.299 62.65C515.765 62.35 515.999 61.8667 515.999 61.2C515.999 60.6667 515.815 60.2333 515.449 59.9C515.082 59.5667 514.432 59.2 513.499 58.8L507.749 56.35C506.149 55.65 504.982 54.8 504.249 53.8C503.549 52.7667 503.199 51.4 503.199 49.7C503.199 47.2667 503.999 45.4667 505.599 44.3C507.199 43.1333 509.732 42.55 513.199 42.55C516.765 42.55 519.365 43.1667 520.999 44.4C522.665 45.6 523.499 47.45 523.499 49.95C523.499 50.4167 523.249 50.65 522.749 50.65H516.749C516.515 50.65 516.349 50.5833 516.249 50.45C516.149 50.2833 516.099 50.0833 516.099 49.85C516.099 49.25 515.882 48.8 515.449 48.5C515.015 48.1667 514.399 48 513.599 48C512.765 48 512.149 48.1333 511.749 48.4C511.382 48.6667 511.199 49.1 511.199 49.7C511.199 50.1 511.349 50.45 511.649 50.75C511.949 51.05 512.532 51.3833 513.399 51.75L519.099 54.1C520.832 54.8 522.082 55.6667 522.849 56.7C523.615 57.7333 523.999 59.1333 523.999 60.9C523.999 63.4667 523.082 65.4 521.249 66.7C519.449 67.9667 516.749 68.6 513.149 68.6ZM538.525 40.2C541.258 40.2 543.675 40.7167 545.775 41.75C547.875 42.75 549.525 44.2833 550.725 46.35C551.925 48.3833 552.525 50.9833 552.525 54.15C552.525 57.3167 551.975 59.9667 550.875 62.1C549.808 64.2333 548.308 65.8333 546.375 66.9C544.441 67.9667 542.191 68.5 539.625 68.5C537.125 68.5 534.958 68.0167 533.125 67.05C531.291 66.0833 529.875 64.6833 528.875 62.85C527.875 60.9833 527.375 58.7333 527.375 56.1V52.5H544.975C544.908 50.4 544.275 48.75 543.075 47.55C541.908 46.35 540.275 45.75 538.175 45.75C536.441 45.75 534.841 45.9333 533.375 46.3C531.941 46.6333 530.458 47.1667 528.925 47.9V42.15C530.291 41.4833 531.708 41 533.175 40.7C534.641 40.3667 536.425 40.2 538.525 40.2ZM534.375 57.45C534.408 58.55 534.608 59.5333 534.975 60.4C535.341 61.2667 535.908 61.95 536.675 62.45C537.441 62.95 538.408 63.2 539.575 63.2C541.041 63.2 542.241 62.7333 543.175 61.8C544.141 60.8667 544.691 59.4167 544.825 57.45H534.375ZM557.916 68C557.449 68 557.216 67.7667 557.216 67.3V34.55C557.216 34.0833 557.449 33.85 557.916 33.85H564.516C564.982 33.85 565.216 34.0833 565.216 34.55V67.3C565.216 67.7667 564.982 68 564.516 68H557.916ZM581.356 68.6C579.123 68.6 577.34 68.3 576.006 67.7C574.673 67.0667 573.706 66.05 573.106 64.65C572.54 63.25 572.256 61.4167 572.256 59.15V49.75H568.756C568.29 49.75 568.056 49.5167 568.056 49.05V43.8C568.056 43.3667 568.29 43.15 568.756 43.15H572.506L573.356 37.15C573.423 36.7167 573.673 36.5 574.106 36.5H579.556C580.023 36.5 580.256 36.7333 580.256 37.2V43.15H586.306C586.773 43.15 587.006 43.3667 587.006 43.8V49.05C587.006 49.5167 586.773 49.75 586.306 49.75H580.256V58.55C580.256 59.6167 580.456 60.4333 580.856 61C581.29 61.5333 581.973 61.8 582.906 61.8C583.44 61.8 583.973 61.75 584.506 61.65C585.073 61.55 585.656 61.4 586.256 61.2C586.523 61.1 586.723 61.1 586.856 61.2C586.99 61.3 587.056 61.4833 587.056 61.75V67C587.056 67.3667 586.873 67.6333 586.506 67.8C585.806 68.0667 584.99 68.2667 584.056 68.4C583.156 68.5333 582.256 68.6 581.356 68.6Z" fill="white"/>
<path d="M3.54971 70.1574C-0.138175 67.6585 -1.10965 62.6319 1.37986 58.9301L37.8463 4.70649C40.3358 1.00472 45.3436 0.0295894 49.0314 2.52847C52.7193 5.02736 53.6908 10.054 51.2013 13.7557L14.7349 67.9794C12.2454 71.6812 7.23759 72.6563 3.54971 70.1574Z" fill="white"/>
<path d="M16.4011 105.615C12.7132 103.116 11.7417 98.0894 14.2312 94.3877L75.3125 3.56307C77.802 -0.138694 82.8098 -1.11383 86.4976 1.38506C90.1855 3.88394 91.157 8.91056 88.6675 12.6123L27.5862 103.437C25.0967 107.139 20.0889 108.114 16.4011 105.615Z" fill="white"/>
<path d="M53.9686 104.321C50.2807 101.822 49.3092 96.7954 51.7987 93.0936L88.2651 38.87C90.7546 35.1682 95.7624 34.1931 99.4503 36.692C103.138 39.1908 104.11 44.2175 101.62 47.9192L65.1537 102.143C62.6642 105.845 57.6564 106.82 53.9686 104.321Z" fill="white"/>
</svg>
